<mxfile host="app.diagrams.net" modified="2021-08-24T20:37:27.416Z" agent="5.0 (Windows NT 10.0; Win64; x64) AppleWebKit/537.36 (KHTML, like Gecko) Chrome/92.0.4515.159 Safari/537.36" etag="cCdIlNfyLUWXQLnzeHZQ" version="14.9.9" type="github">
  <diagram name="Page-1" id="42789a77-a242-8287-6e28-9cd8cfd52e62">
    <mxGraphModel dx="1968" dy="482" grid="1" gridSize="10" guides="1" tooltips="1" connect="1" arrows="1" fold="1" page="1" pageScale="1" pageWidth="1100" pageHeight="850" background="none" math="0" shadow="0">
      <root>
        <mxCell id="0" />
        <mxCell id="1" parent="0" />
        <mxCell id="1ea317790d2ca983-13" value="Fork" style="edgeStyle=none;rounded=1;html=1;labelBackgroundColor=none;startArrow=none;startFill=0;startSize=5;endArrow=classicThin;endFill=1;endSize=5;jettySize=auto;orthogonalLoop=1;strokeColor=#B3B3B3;strokeWidth=1;fontFamily=Verdana;fontSize=12" parent="1" source="1ea317790d2ca983-1" target="1ea317790d2ca983-9" edge="1">
          <mxGeometry relative="1" as="geometry" />
        </mxCell>
        <mxCell id="1ea317790d2ca983-14" value="Fork" style="edgeStyle=none;rounded=1;html=1;labelBackgroundColor=none;startArrow=none;startFill=0;startSize=5;endArrow=classicThin;endFill=1;endSize=5;jettySize=auto;orthogonalLoop=1;strokeColor=#B3B3B3;strokeWidth=1;fontFamily=Verdana;fontSize=12" parent="1" source="1ea317790d2ca983-1" target="1ea317790d2ca983-3" edge="1">
          <mxGeometry relative="1" as="geometry" />
        </mxCell>
        <mxCell id="1ea317790d2ca983-1" value="Git Repository&lt;br&gt;(Master)" style="ellipse;whiteSpace=wrap;html=1;rounded=0;shadow=1;comic=0;labelBackgroundColor=none;strokeWidth=1;fontFamily=Verdana;fontSize=12;align=center;fillColor=#d5e8d4;strokeColor=#82b366;" parent="1" vertex="1">
          <mxGeometry x="450" y="80" width="90" height="60" as="geometry" />
        </mxCell>
        <mxCell id="1ea317790d2ca983-15" value="Branch" style="edgeStyle=none;rounded=1;html=1;labelBackgroundColor=none;startArrow=none;startFill=0;startSize=5;endArrow=classicThin;endFill=1;endSize=5;jettySize=auto;orthogonalLoop=1;strokeColor=#B3B3B3;strokeWidth=1;fontFamily=Verdana;fontSize=12" parent="1" source="1ea317790d2ca983-3" target="1ea317790d2ca983-4" edge="1">
          <mxGeometry relative="1" as="geometry" />
        </mxCell>
        <mxCell id="1ea317790d2ca983-3" value="&lt;span&gt;Got Repos Fork 2&lt;/span&gt;" style="ellipse;whiteSpace=wrap;html=1;rounded=0;shadow=1;comic=0;labelBackgroundColor=none;strokeWidth=1;fontFamily=Verdana;fontSize=12;align=center;fillColor=#d5e8d4;strokeColor=#82b366;" parent="1" vertex="1">
          <mxGeometry x="700" y="190" width="75" height="50" as="geometry" />
        </mxCell>
        <mxCell id="-K1N4quKvSw1PZjSU1I0-28" value="" style="edgeStyle=orthogonalEdgeStyle;rounded=0;orthogonalLoop=1;jettySize=auto;html=1;" edge="1" parent="1" source="1ea317790d2ca983-4" target="-K1N4quKvSw1PZjSU1I0-25">
          <mxGeometry relative="1" as="geometry" />
        </mxCell>
        <mxCell id="1ea317790d2ca983-4" value="&lt;span&gt;Topic 3&lt;/span&gt;" style="ellipse;whiteSpace=wrap;html=1;rounded=0;shadow=1;comic=0;labelBackgroundColor=none;strokeWidth=1;fontFamily=Verdana;fontSize=12;align=center;" parent="1" vertex="1">
          <mxGeometry x="630" y="310" width="75" height="50" as="geometry" />
        </mxCell>
        <mxCell id="1ea317790d2ca983-19" value="Branch" style="edgeStyle=none;rounded=1;html=1;labelBackgroundColor=none;startArrow=none;startFill=0;startSize=5;endArrow=classicThin;endFill=1;endSize=5;jettySize=auto;orthogonalLoop=1;strokeColor=#B3B3B3;strokeWidth=1;fontFamily=Verdana;fontSize=12" parent="1" source="1ea317790d2ca983-9" target="1ea317790d2ca983-10" edge="1">
          <mxGeometry relative="1" as="geometry" />
        </mxCell>
        <mxCell id="1ea317790d2ca983-9" value="Git Repos Fork 1" style="ellipse;whiteSpace=wrap;html=1;rounded=0;shadow=1;comic=0;labelBackgroundColor=none;strokeWidth=1;fontFamily=Verdana;fontSize=12;align=center;fillColor=#d5e8d4;strokeColor=#82b366;" parent="1" vertex="1">
          <mxGeometry x="145" y="205" width="75" height="50" as="geometry" />
        </mxCell>
        <mxCell id="-K1N4quKvSw1PZjSU1I0-18" value="" style="edgeStyle=orthogonalEdgeStyle;rounded=0;orthogonalLoop=1;jettySize=auto;html=1;entryX=0.617;entryY=0.2;entryDx=0;entryDy=0;entryPerimeter=0;" edge="1" parent="1" source="1ea317790d2ca983-10" target="-K1N4quKvSw1PZjSU1I0-17">
          <mxGeometry relative="1" as="geometry" />
        </mxCell>
        <mxCell id="1ea317790d2ca983-10" value="Topic 1" style="ellipse;whiteSpace=wrap;html=1;rounded=0;shadow=1;comic=0;labelBackgroundColor=none;strokeWidth=1;fontFamily=Verdana;fontSize=12;align=center;" parent="1" vertex="1">
          <mxGeometry x="60" y="325" width="75" height="50" as="geometry" />
        </mxCell>
        <mxCell id="-K1N4quKvSw1PZjSU1I0-1" value="Team 1" style="text;html=1;strokeColor=#6c8ebf;fillColor=#dae8fc;align=center;verticalAlign=middle;whiteSpace=wrap;rounded=0;" vertex="1" parent="1">
          <mxGeometry x="200" y="120" width="50" height="20" as="geometry" />
        </mxCell>
        <mxCell id="-K1N4quKvSw1PZjSU1I0-2" value="Team 2" style="text;html=1;strokeColor=#6c8ebf;fillColor=#dae8fc;align=center;verticalAlign=middle;whiteSpace=wrap;rounded=0;" vertex="1" parent="1">
          <mxGeometry x="717.5" y="120" width="42.5" height="20" as="geometry" />
        </mxCell>
        <mxCell id="-K1N4quKvSw1PZjSU1I0-21" style="edgeStyle=orthogonalEdgeStyle;rounded=0;orthogonalLoop=1;jettySize=auto;html=1;exitX=0.5;exitY=1;exitDx=0;exitDy=0;entryX=0.433;entryY=0.4;entryDx=0;entryDy=0;entryPerimeter=0;" edge="1" parent="1" source="-K1N4quKvSw1PZjSU1I0-3" target="-K1N4quKvSw1PZjSU1I0-19">
          <mxGeometry relative="1" as="geometry" />
        </mxCell>
        <mxCell id="-K1N4quKvSw1PZjSU1I0-3" value="Topic 2" style="ellipse;whiteSpace=wrap;html=1;" vertex="1" parent="1">
          <mxGeometry x="205" y="335" width="80" height="40" as="geometry" />
        </mxCell>
        <mxCell id="-K1N4quKvSw1PZjSU1I0-4" value="Branch" style="edgeStyle=none;rounded=1;html=1;labelBackgroundColor=none;startArrow=none;startFill=0;startSize=5;endArrow=classicThin;endFill=1;endSize=5;jettySize=auto;orthogonalLoop=1;strokeColor=#B3B3B3;strokeWidth=1;fontFamily=Verdana;fontSize=12;entryX=0.5;entryY=0;entryDx=0;entryDy=0;exitX=0.693;exitY=0.92;exitDx=0;exitDy=0;exitPerimeter=0;" edge="1" parent="1" source="1ea317790d2ca983-9" target="-K1N4quKvSw1PZjSU1I0-3">
          <mxGeometry relative="1" as="geometry">
            <mxPoint x="225" y="265" as="sourcePoint" />
            <mxPoint x="123.51273645279093" y="337.3937838313541" as="targetPoint" />
          </mxGeometry>
        </mxCell>
        <mxCell id="-K1N4quKvSw1PZjSU1I0-5" value="&lt;span&gt;Topic 4&lt;/span&gt;" style="ellipse;whiteSpace=wrap;html=1;rounded=0;shadow=1;comic=0;labelBackgroundColor=none;strokeWidth=1;fontFamily=Verdana;fontSize=12;align=center;" vertex="1" parent="1">
          <mxGeometry x="740" y="310" width="75" height="50" as="geometry" />
        </mxCell>
        <mxCell id="-K1N4quKvSw1PZjSU1I0-6" value="Branch" style="edgeStyle=none;rounded=1;html=1;labelBackgroundColor=none;startArrow=none;startFill=0;startSize=5;endArrow=classicThin;endFill=1;endSize=5;jettySize=auto;orthogonalLoop=1;strokeColor=#B3B3B3;strokeWidth=1;fontFamily=Verdana;fontSize=12;entryX=0.667;entryY=0.1;entryDx=0;entryDy=0;entryPerimeter=0;exitX=0.653;exitY=0.98;exitDx=0;exitDy=0;exitPerimeter=0;" edge="1" parent="1" source="1ea317790d2ca983-3" target="-K1N4quKvSw1PZjSU1I0-5">
          <mxGeometry relative="1" as="geometry">
            <mxPoint x="733.9082652066863" y="248.3001167885377" as="sourcePoint" />
            <mxPoint x="691.0917347933264" y="321.69988321144046" as="targetPoint" />
          </mxGeometry>
        </mxCell>
        <mxCell id="-K1N4quKvSw1PZjSU1I0-8" value="Master" style="text;html=1;strokeColor=#b85450;fillColor=#f8cecc;align=center;verticalAlign=middle;whiteSpace=wrap;rounded=0;" vertex="1" parent="1">
          <mxGeometry x="95" y="220" width="40" height="20" as="geometry" />
        </mxCell>
        <mxCell id="-K1N4quKvSw1PZjSU1I0-9" value="Master" style="text;html=1;strokeColor=#b85450;fillColor=#f8cecc;align=center;verticalAlign=middle;whiteSpace=wrap;rounded=0;" vertex="1" parent="1">
          <mxGeometry x="480" y="150" width="40" height="20" as="geometry" />
        </mxCell>
        <mxCell id="-K1N4quKvSw1PZjSU1I0-10" value="Master" style="text;html=1;strokeColor=#b85450;fillColor=#f8cecc;align=center;verticalAlign=middle;whiteSpace=wrap;rounded=0;" vertex="1" parent="1">
          <mxGeometry x="790" y="205" width="40" height="20" as="geometry" />
        </mxCell>
        <mxCell id="-K1N4quKvSw1PZjSU1I0-12" value="" style="curved=1;endArrow=classic;html=1;exitX=0.283;exitY=0.74;exitDx=0;exitDy=0;exitPerimeter=0;entryX=0;entryY=1;entryDx=0;entryDy=0;" edge="1" parent="1" source="-K1N4quKvSw1PZjSU1I0-17" target="1ea317790d2ca983-9">
          <mxGeometry width="50" height="50" relative="1" as="geometry">
            <mxPoint x="460" y="355" as="sourcePoint" />
            <mxPoint x="140" y="260" as="targetPoint" />
            <Array as="points">
              <mxPoint x="-20" y="430" />
              <mxPoint x="40" y="280" />
            </Array>
          </mxGeometry>
        </mxCell>
        <mxCell id="-K1N4quKvSw1PZjSU1I0-14" value="Merge to Master" style="edgeLabel;html=1;align=center;verticalAlign=middle;resizable=0;points=[];" vertex="1" connectable="0" parent="-K1N4quKvSw1PZjSU1I0-12">
          <mxGeometry x="-0.5785" y="4" relative="1" as="geometry">
            <mxPoint as="offset" />
          </mxGeometry>
        </mxCell>
        <mxCell id="-K1N4quKvSw1PZjSU1I0-13" value="" style="curved=1;endArrow=classic;html=1;exitX=0.4;exitY=0.52;exitDx=0;exitDy=0;exitPerimeter=0;entryX=1;entryY=1;entryDx=0;entryDy=0;" edge="1" parent="1" source="-K1N4quKvSw1PZjSU1I0-19" target="1ea317790d2ca983-9">
          <mxGeometry width="50" height="50" relative="1" as="geometry">
            <mxPoint x="107.5" y="385" as="sourcePoint" />
            <mxPoint x="235" y="265" as="targetPoint" />
            <Array as="points">
              <mxPoint x="395" y="465" />
              <mxPoint x="390" y="305" />
            </Array>
          </mxGeometry>
        </mxCell>
        <mxCell id="-K1N4quKvSw1PZjSU1I0-22" value="Merge to Mster" style="edgeLabel;html=1;align=center;verticalAlign=middle;resizable=0;points=[];" vertex="1" connectable="0" parent="-K1N4quKvSw1PZjSU1I0-13">
          <mxGeometry x="-0.0355" y="-1" relative="1" as="geometry">
            <mxPoint as="offset" />
          </mxGeometry>
        </mxCell>
        <mxCell id="-K1N4quKvSw1PZjSU1I0-17" value="Topic 1 Completed" style="verticalLabelPosition=bottom;verticalAlign=top;html=1;shape=mxgraph.basic.tick" vertex="1" parent="1">
          <mxGeometry x="60" y="429" width="60" height="50" as="geometry" />
        </mxCell>
        <mxCell id="-K1N4quKvSw1PZjSU1I0-19" value="Topic 2 Completed" style="verticalLabelPosition=bottom;verticalAlign=top;html=1;shape=mxgraph.basic.tick" vertex="1" parent="1">
          <mxGeometry x="219" y="425" width="60" height="50" as="geometry" />
        </mxCell>
        <mxCell id="-K1N4quKvSw1PZjSU1I0-25" value="Topic 3 Completed" style="verticalLabelPosition=bottom;verticalAlign=top;html=1;shape=mxgraph.basic.tick" vertex="1" parent="1">
          <mxGeometry x="637" y="400" width="60" height="50" as="geometry" />
        </mxCell>
        <mxCell id="-K1N4quKvSw1PZjSU1I0-26" value="Topic 4 Completed" style="verticalLabelPosition=bottom;verticalAlign=top;html=1;shape=mxgraph.basic.tick" vertex="1" parent="1">
          <mxGeometry x="770" y="390" width="60" height="50" as="geometry" />
        </mxCell>
        <mxCell id="-K1N4quKvSw1PZjSU1I0-29" value="Merge to Master" style="curved=1;endArrow=classic;html=1;entryX=0.013;entryY=0.78;entryDx=0;entryDy=0;entryPerimeter=0;exitX=0.167;exitY=0.92;exitDx=0;exitDy=0;exitPerimeter=0;" edge="1" parent="1" source="-K1N4quKvSw1PZjSU1I0-25" target="1ea317790d2ca983-3">
          <mxGeometry width="50" height="50" relative="1" as="geometry">
            <mxPoint x="420" y="430" as="sourcePoint" />
            <mxPoint x="470" y="380" as="targetPoint" />
            <Array as="points">
              <mxPoint x="470" y="430" />
              <mxPoint x="580" y="290" />
            </Array>
          </mxGeometry>
        </mxCell>
        <mxCell id="-K1N4quKvSw1PZjSU1I0-31" value="Merge to Master" style="curved=1;endArrow=classic;html=1;entryX=0.773;entryY=0.94;entryDx=0;entryDy=0;entryPerimeter=0;exitX=0.32;exitY=0.992;exitDx=0;exitDy=0;exitPerimeter=0;" edge="1" parent="1" source="-K1N4quKvSw1PZjSU1I0-26" target="1ea317790d2ca983-3">
          <mxGeometry width="50" height="50" relative="1" as="geometry">
            <mxPoint x="657.02" y="456" as="sourcePoint" />
            <mxPoint x="710.9749999999999" y="239" as="targetPoint" />
            <Array as="points">
              <mxPoint x="930" y="400" />
              <mxPoint x="900" y="300" />
            </Array>
          </mxGeometry>
        </mxCell>
        <mxCell id="-K1N4quKvSw1PZjSU1I0-32" value="On Release Pull Request to Master" style="curved=1;endArrow=classic;html=1;exitX=1;exitY=0.5;exitDx=0;exitDy=0;entryX=0;entryY=1;entryDx=0;entryDy=0;" edge="1" parent="1" source="1ea317790d2ca983-9" target="1ea317790d2ca983-1">
          <mxGeometry x="-0.3337" y="20" width="50" height="50" relative="1" as="geometry">
            <mxPoint x="430" y="230" as="sourcePoint" />
            <mxPoint x="480" y="180" as="targetPoint" />
            <Array as="points">
              <mxPoint x="480" y="230" />
            </Array>
            <mxPoint as="offset" />
          </mxGeometry>
        </mxCell>
        <mxCell id="-K1N4quKvSw1PZjSU1I0-33" value="On Release Pull Request to Master" style="curved=1;endArrow=classic;html=1;exitX=0;exitY=0.5;exitDx=0;exitDy=0;entryX=1;entryY=1;entryDx=0;entryDy=0;" edge="1" parent="1" source="1ea317790d2ca983-3" target="1ea317790d2ca983-1">
          <mxGeometry x="-0.2878" y="-39" width="50" height="50" relative="1" as="geometry">
            <mxPoint x="230.9749999999999" y="255" as="sourcePoint" />
            <mxPoint x="476.02" y="151.01999999999998" as="targetPoint" />
            <Array as="points">
              <mxPoint x="490" y="240" />
            </Array>
            <mxPoint as="offset" />
          </mxGeometry>
        </mxCell>
      </root>
    </mxGraphModel>
  </diagram>
</mxfile>
